<?xml version="1.0" standalone="no"?>
<svg xmlns:xlink="http://www.w3.org/1999/xlink" id="wave" style="transform:rotate(0deg); transition: 0.3s" viewBox="0 0 1440 100" version="1.1" xmlns="http://www.w3.org/2000/svg"><defs><linearGradient id="sw-gradient-0" x1="0" x2="0" y1="1" y2="0"><stop stop-color="rgba(51, 65, 85, 1)" offset="0%"/><stop stop-color="rgba(51, 65, 83, 1)" offset="100%"/></linearGradient></defs><path style="transform:translate(0, 0px); opacity:1" fill="url(#sw-gradient-0)" d="M0,70L14.1,65C28.2,60,56,50,85,53.3C112.9,57,141,73,169,80C197.6,87,226,83,254,83.3C282.4,83,311,87,339,76.7C367.1,67,395,43,424,36.7C451.8,30,480,40,508,38.3C536.5,37,565,23,593,23.3C621.2,23,649,37,678,43.3C705.9,50,734,50,762,51.7C790.6,53,819,57,847,50C875.3,43,904,27,932,23.3C960,20,988,30,1016,35C1044.7,40,1073,40,1101,48.3C1129.4,57,1158,73,1186,71.7C1214.1,70,1242,50,1271,43.3C1298.8,37,1327,43,1355,40C1383.5,37,1412,23,1440,21.7C1468.2,20,1496,30,1525,33.3C1552.9,37,1581,33,1609,26.7C1637.6,20,1666,10,1694,13.3C1722.4,17,1751,33,1779,41.7C1807.1,50,1835,50,1864,50C1891.8,50,1920,50,1948,51.7C1976.5,53,2005,57,2019,58.3L2032.9,60L2032.9,100L2018.8,100C2004.7,100,1976,100,1948,100C1920,100,1892,100,1864,100C1835.3,100,1807,100,1779,100C1750.6,100,1722,100,1694,100C1665.9,100,1638,100,1609,100C1581.2,100,1553,100,1525,100C1496.5,100,1468,100,1440,100C1411.8,100,1384,100,1355,100C1327.1,100,1299,100,1271,100C1242.4,100,1214,100,1186,100C1157.6,100,1129,100,1101,100C1072.9,100,1045,100,1016,100C988.2,100,960,100,932,100C903.5,100,875,100,847,100C818.8,100,791,100,762,100C734.1,100,706,100,678,100C649.4,100,621,100,593,100C564.7,100,536,100,508,100C480,100,452,100,424,100C395.3,100,367,100,339,100C310.6,100,282,100,254,100C225.9,100,198,100,169,100C141.2,100,113,100,85,100C56.5,100,28,100,14,100L0,100Z"/></svg>