<?xml version="1.0" standalone="no"?>
<svg xmlns:xlink="http://www.w3.org/1999/xlink" id="wave" style="transform:rotate(0deg); transition: 0.3s" viewBox="0 0 1440 110" version="1.1" xmlns="http://www.w3.org/2000/svg"><defs><linearGradient id="sw-gradient-0" x1="0" x2="0" y1="1" y2="0"><stop stop-color="rgba(203, 213, 225, 1)" offset="0%"/><stop stop-color="rgba(100, 116, 139, 1)" offset="100%"/></linearGradient></defs><path style="transform:translate(0, 0px); opacity:1" fill="url(#sw-gradient-0)" d="M0,11L12.6,25.7C25.3,40,51,70,76,78.8C101.1,88,126,77,152,71.5C176.8,66,202,66,227,64.2C252.6,62,278,59,303,55C328.4,51,354,48,379,55C404.2,62,429,81,455,75.2C480,70,505,40,531,40.3C555.8,40,581,70,606,71.5C631.6,73,657,48,682,40.3C707.4,33,733,44,758,40.3C783.2,37,808,18,834,12.8C858.9,7,884,15,909,20.2C934.7,26,960,29,985,29.3C1010.5,29,1036,26,1061,33C1086.3,40,1112,59,1137,67.8C1162.1,77,1187,77,1213,75.2C1237.9,73,1263,70,1288,71.5C1313.7,73,1339,81,1364,80.7C1389.5,81,1415,73,1440,64.2C1465.3,55,1491,44,1516,49.5C1541.1,55,1566,77,1592,78.8C1616.8,81,1642,62,1667,60.5C1692.6,59,1718,73,1743,73.3C1768.4,73,1794,59,1806,51.3L1818.9,44L1818.9,110L1806.3,110C1793.7,110,1768,110,1743,110C1717.9,110,1693,110,1667,110C1642.1,110,1617,110,1592,110C1566.3,110,1541,110,1516,110C1490.5,110,1465,110,1440,110C1414.7,110,1389,110,1364,110C1338.9,110,1314,110,1288,110C1263.2,110,1238,110,1213,110C1187.4,110,1162,110,1137,110C1111.6,110,1086,110,1061,110C1035.8,110,1011,110,985,110C960,110,935,110,909,110C884.2,110,859,110,834,110C808.4,110,783,110,758,110C732.6,110,707,110,682,110C656.8,110,632,110,606,110C581.1,110,556,110,531,110C505.3,110,480,110,455,110C429.5,110,404,110,379,110C353.7,110,328,110,303,110C277.9,110,253,110,227,110C202.1,110,177,110,152,110C126.3,110,101,110,76,110C50.5,110,25,110,13,110L0,110Z"/></svg>